<svg width="20" height="20" viewBox="0 0 20 20" fill="none" xmlns="http://www.w3.org/2000/svg">
<path d="M16.6489 9.70156V14.9892C16.6489 15.6946 16.3687 16.371 15.8699 16.8698C15.3711 17.3686 14.6947 17.6488 13.9893 17.6488H6.01045C5.30508 17.6488 4.62859 17.3686 4.12982 16.8698C3.63104 16.371 3.35083 15.6946 3.35083 14.9892V9.70156L8.00516 3.68584H11.9946L16.6489 9.70156Z" fill="#9282FA" fill-opacity="0.4"/>
<path d="M19.2844 10.0855L17.9197 2.77159C17.8864 2.59331 17.8169 2.42374 17.7156 2.2733C17.6143 2.12286 17.4833 1.99472 17.3306 1.89679C17.1779 1.79886 17.0069 1.73319 16.8278 1.70382C16.6489 1.67446 16.4658 1.68201 16.2898 1.72603L16.2641 1.73351L11.899 3.02093H8.10072L3.73562 1.73767L3.70985 1.73019C3.5339 1.68617 3.35081 1.67861 3.17183 1.70798C2.99285 1.73735 2.82177 1.80302 2.66911 1.90095C2.51645 1.99888 2.38544 2.12701 2.28413 2.27745C2.18282 2.42789 2.11335 2.59746 2.08001 2.77575L0.715295 10.0855C0.656937 10.3783 0.700259 10.6822 0.838083 10.947C0.975914 11.2117 1.20001 11.4216 1.47328 11.5417C1.64829 11.622 1.83844 11.6639 2.03097 11.6647C2.26142 11.6646 2.48761 11.6026 2.6859 11.4852V14.9892C2.6859 15.871 3.03617 16.7165 3.65963 17.34C4.2831 17.9635 5.12871 18.3137 6.01042 18.3137H13.9893C14.871 18.3137 15.7166 17.9635 16.34 17.34C16.9636 16.7165 17.3138 15.871 17.3138 14.9892V11.486C17.5119 11.6032 17.7378 11.6652 17.9679 11.6655C18.1606 11.6649 18.3511 11.6233 18.5264 11.5433C18.8 11.4232 19.0243 11.2131 19.1622 10.9479C19.3 10.6828 19.3432 10.3785 19.2844 10.0855ZM2.021 10.3349L3.38655 3.02093L6.88311 4.04904L2.021 10.3349ZM13.9893 16.9839H10.6648V15.9292L11.8001 14.7947C11.9248 14.67 11.9949 14.5008 11.9949 14.3243C11.9949 14.1478 11.9248 13.9786 11.8001 13.8539C11.6753 13.7291 11.5061 13.6591 11.3297 13.6591C11.1532 13.6591 10.984 13.7291 10.8592 13.8539L9.99985 14.7141L9.14047 13.8539C9.01571 13.7291 8.84649 13.6591 8.67005 13.6591C8.4936 13.6591 8.32438 13.7291 8.19963 13.8539C8.07487 13.9786 8.00473 14.1479 8.00473 14.3243C8.00473 14.5007 8.07487 14.67 8.19963 14.7947L9.33495 15.9292V16.9839H6.01042C5.48139 16.9839 4.97403 16.7737 4.59995 16.3997C4.22587 16.0256 4.01571 15.5182 4.01571 14.9892V9.92846L8.33178 4.35074H11.6679L15.984 9.92846V14.9892C15.984 15.5182 15.7738 16.0256 15.3997 16.3997C15.0257 16.7737 14.5183 16.9839 13.9893 16.9839ZM17.9787 10.3349L13.1166 4.04904L16.6132 3.02093L17.9787 10.3349ZM8.00514 11.3322C8.00514 11.5295 7.94663 11.7223 7.83709 11.8863C7.72746 12.0503 7.57169 12.1782 7.38945 12.2537C7.20721 12.3292 7.00667 12.3489 6.8132 12.3104C6.61974 12.2719 6.44203 12.1769 6.30254 12.0374C6.16306 11.898 6.06807 11.7203 6.02959 11.5268C5.99111 11.3333 6.01085 11.1328 6.08634 10.9506C6.16183 10.7683 6.28967 10.6126 6.45368 10.5029C6.6177 10.3934 6.81052 10.3349 7.00778 10.3349C7.27229 10.3349 7.52598 10.4399 7.713 10.627C7.90009 10.814 8.00514 11.0677 8.00514 11.3322ZM13.9893 11.3322C13.9893 11.5295 13.9308 11.7223 13.8212 11.8863C13.7116 12.0503 13.5558 12.1782 13.3736 12.2537C13.1913 12.3292 12.9908 12.3489 12.7974 12.3104C12.6039 12.2719 12.4262 12.1769 12.2867 12.0374C12.1472 11.898 12.0522 11.7203 12.0137 11.5268C11.9752 11.3333 11.995 11.1328 12.0705 10.9506C12.146 10.7683 12.2738 10.6126 12.4378 10.5029C12.6018 10.3934 12.7947 10.3349 12.9919 10.3349C13.2565 10.3349 13.5101 10.4399 13.6971 10.627C13.8842 10.814 13.9893 11.0677 13.9893 11.3322Z" fill="#9282FA"/>
</svg>
